<?xml version="1.0" encoding="UTF-8"?>
<svg xmlns="http://www.w3.org/2000/svg" xmlns:xlink="http://www.w3.org/1999/xlink" width="64px" height="64px" viewBox="0 0 64 64" version="1.1">
<g id="surface1">
<path style=" stroke:none;fill-rule:nonzero;fill:rgb(56.862745%,1.960784%,12.54902%);fill-opacity:1;" d="M 32.007812 41.285156 L 28.777344 44.515625 L 25.148438 40.886719 L 25.148438 32.167969 C 26.570312 32.84375 28.105469 33.316406 29.71875 33.546875 L 29.71875 39 Z M 32.007812 41.285156 "/>
<path style=" stroke:none;fill-rule:nonzero;fill:rgb(56.862745%,1.960784%,12.54902%);fill-opacity:1;" d="M 38.863281 48.144531 L 38.863281 54.675781 L 34.292969 54.675781 L 34.292969 50.03125 L 33.21875 48.957031 L 35.503906 46.671875 L 36.445312 45.726562 Z M 38.863281 48.144531 "/>
<path style=" stroke:none;fill-rule:nonzero;fill:rgb(56.862745%,1.960784%,12.54902%);fill-opacity:1;" d="M 41.847656 28.710938 L 32.375 30.953125 L 23.539062 29.078125 L 18.367188 18.433594 L 45.339844 18.433594 Z M 41.847656 28.710938 "/>
<path style=" stroke:none;fill-rule:nonzero;fill:rgb(100%,100%,100%);fill-opacity:1;" d="M 48.007812 9.136719 L 48.007812 17.707031 C 48.007812 19.507812 47.707031 21.238281 47.160156 22.851562 C 45.765625 26.964844 42.746094 30.324219 38.863281 32.167969 L 38.863281 40.886719 L 34.292969 45.457031 L 32.007812 47.746094 L 29.71875 50.03125 L 29.71875 54.851562 L 25.148438 54.851562 L 25.148438 48.144531 L 34.292969 39 L 34.292969 33.546875 C 33.546875 33.652344 32.78125 33.707031 32.007812 33.707031 C 31.230469 33.707031 30.46875 33.652344 29.71875 33.546875 C 28.105469 33.316406 26.570312 32.84375 25.148438 32.167969 C 21.265625 30.324219 18.246094 26.964844 16.851562 22.851562 C 16.304688 21.238281 16.007812 19.507812 16.007812 17.707031 L 16.007812 9.136719 L 20.578125 9.136719 L 20.578125 17.707031 C 20.578125 21.449219 22.375 24.765625 25.148438 26.851562 C 26.476562 27.851562 28.03125 28.566406 29.71875 28.90625 C 30.457031 29.058594 31.222656 29.136719 32.007812 29.136719 C 32.789062 29.136719 33.554688 29.058594 34.292969 28.90625 C 35.980469 28.566406 37.535156 27.851562 38.863281 26.851562 C 41.640625 24.765625 43.433594 21.449219 43.433594 17.707031 L 43.433594 9.136719 Z M 48.007812 9.136719 "/>
</g>
</svg>
