<?xml version="1.0" encoding="utf-8"?>
<!-- Generator: Adobe Illustrator 26.3.1, SVG Export Plug-In . SVG Version: 6.00 Build 0)  -->
<svg version="1.1" id="Layer_1" xmlns="http://www.w3.org/2000/svg" xmlns:xlink="http://www.w3.org/1999/xlink" x="0px" y="0px"
	 viewBox="0 0 3000 3000" style="enable-background:new 0 0 3000 3000;" xml:space="preserve">
<style type="text/css">
	.st0{fill:#910520;}
	.st1{fill:#FFFFFF;}
</style>
<path class="st0" d="M1500.28,1935.32l-151.34,151.34l-56.82-56.82l-113.27-113.27v-408.69c66.61,31.67,138.6,53.78,214.29,64.61
	v255.68L1500.28,1935.32z"/>
<polygon class="st0" points="1821.7,2256.75 1821.7,2563 1607.42,2563 1607.42,2345.17 1557.09,2294.84 1664.23,2187.67 
	1708.43,2143.47 "/>
<polygon class="st0" points="1961.53,1345.91 1517.66,1450.87 1103.45,1363.02 860.99,864.06 2125.3,864.06 "/>
<path class="st1" d="M2250.28,428.3v401.79c0,84.32-13.93,165.42-39.58,241.07c-65.39,192.74-206.99,350.3-388.99,436.73v408.69
	l-170.09,170.09l-44.2,44.2l-107.14,107.17l-107.14,107.14v225.98h-214.29v-314.4l428.57-428.57v-255.68
	c-35,5-70.77,7.59-107.14,7.59c-36.37,0-72.14-2.59-107.14-7.59c-75.68-10.83-147.68-32.95-214.29-64.61
	c-181.99-86.43-323.6-243.99-388.99-436.73c-25.65-75.65-39.58-156.76-39.58-241.07V428.3h214.29v401.79
	c0,175.27,84.17,330.86,214.29,428.6c62.29,46.79,135.12,80.33,214.29,96.37c34.61,7.05,70.45,10.74,107.14,10.74
	c36.7,0,72.53-3.69,107.14-10.74c79.17-16.04,151.99-49.58,214.29-96.37c130.12-97.74,214.29-253.33,214.29-428.6V428.3H2250.28z"/>
</svg>
